<?xml version="1.0" encoding="utf-8"?>
<svg viewBox="0 0 5000 5000" preserveAspectRatio="xMidYMid meet" xmlns="http://www.w3.org/2000/svg">
  <defs>
    <!-- Define the single logo as a reusable element -->
    <g id="single-logo">
      <g transform="matrix(1.5384615384615385,0,0,1.5384615384615385,0,9)">
        <path fill="rgba(255,255,255,0.4)" d="M300.414214,90 L312.707107,102.292893 C313.097631,102.683418 313.097631,103.316582 312.707107,103.707107 C312.316582,104.097631 311.683418,104.097631 311.292893,103.707107 L298.292893,90.7071068 C297.902369,90.3165825 297.902369,89.6834175 298.292893,89.2928932 L311.292893,76.2928932 C311.683418,75.9023689 312.316582,75.9023689 312.707107,76.2928932 C313.097631,76.6834175 313.097631,77.3165825 312.707107,77.7071068 L300.414214,90 Z M330,94 C327.790861,94 326,92.209139 326,90 C326,87.790861 327.790861,86 330,86 C332.209139,86 334,87.790861 334,90 C334,92.209139 332.209139,94 330,94 Z M330,92 C331.104569,92 332,91.1045695 332,90 C332,88.8954305 331.104569,88 330,88 C328.895431,88 328,88.8954305 328,90 C328,91.1045695 328.895431,92 330,92 Z M342,94 C339.790861,94 338,92.209139 338,90 C338,87.790861 339.790861,86 342,86 C344.209139,86 346,87.790861 346,90 C346,92.209139 344.209139,94 342,94 Z M342,92 C343.104569,92 344,91.1045695 344,90 C344,88.8954305 343.104569,88 342,88 C340.895431,88 340,88.8954305 340,90 C340,91.1045695 340.895431,92 342,92 Z M318,94 C315.790861,94 314,92.209139 314,90 C314,87.790861 315.790861,86 318,86 C320.209139,86 322,87.790861 322,90 C322,92.209139 320.209139,94 318,94 Z M318,92 C319.104569,92 320,91.1045695 320,90 C320,88.8954305 319.104569,88 318,88 C316.895431,88 316,88.8954305 316,90 C316,91.1045695 316.895431,92 318,92 Z M360.585786,90 L348.292893,77.7071068 C347.902369,77.3165825 347.902369,76.6834175 348.292893,76.2928932 C348.683418,75.9023689 349.316582,75.9023689 349.707107,76.2928932 L362.707107,89.2928932 C363.097631,89.6834175 363.097631,90.3165825 362.707107,90.7071068 L349.707107,103.707107 C349.316582,104.097631 348.683418,104.097631 348.292893,103.707107 C347.902369,103.316582 347.902369,102.683418 348.292893,102.292893 L360.585786,90 Z" transform="translate(-298 -76)"/>
      </g>
    </g>

    <!-- Define a pattern of single logos -->
    <pattern id="logo-grid" x="0" y="0" width="400" height="400" patternUnits="userSpaceOnUse">
      <use href="#single-logo" x="200" y="200" transform="scale(1.2)"/>
    </pattern>
  </defs>

  <!-- Background with subtle blue -->
  <rect width="100%" height="100%" fill="rgba(59,130,246,0.05)"/>
  
  <!-- Grid of logos -->
  <rect width="100%" height="100%" fill="url(#logo-grid)"/>
</svg>