<svg
              viewBox="0 0 370 60.31583745315089"
              preserveAspectRatio="xMidYMid meet"
              className="h-[1.2rem]"
              id="baechhaf"
            >
              <defs id="SvgjsDefs1376"></defs>
              <g
                id="SvgjsG1377"
                transform="matrix(1.5384615384615385,0,0,1.5384615384615385,0,9)"
                fill="#000"
              >
                <path
                  xmlns="http://www.w3.org/2000/svg"
                  fill="#000"
                  d="M300.414214,90 L312.707107,102.292893 C313.097631,102.683418 313.097631,103.316582 312.707107,103.707107 C312.316582,104.097631 311.683418,104.097631 311.292893,103.707107 L298.292893,90.7071068 C297.902369,90.3165825 297.902369,89.6834175 298.292893,89.2928932 L311.292893,76.2928932 C311.683418,75.9023689 312.316582,75.9023689 312.707107,76.2928932 C313.097631,76.6834175 313.097631,77.3165825 312.707107,77.7071068 L300.414214,90 Z M330,94 C327.790861,94 326,92.209139 326,90 C326,87.790861 327.790861,86 330,86 C332.209139,86 334,87.790861 334,90 C334,92.209139 332.209139,94 330,94 Z M330,92 C331.104569,92 332,91.1045695 332,90 C332,88.8954305 331.104569,88 330,88 C328.895431,88 328,88.8954305 328,90 C328,91.1045695 328.895431,92 330,92 Z M342,94 C339.790861,94 338,92.209139 338,90 C338,87.790861 339.790861,86 342,86 C344.209139,86 346,87.790861 346,90 C346,92.209139 344.209139,94 342,94 Z M342,92 C343.104569,92 344,91.1045695 344,90 C344,88.8954305 343.104569,88 342,88 C340.895431,88 340,88.8954305 340,90 C340,91.1045695 340.895431,92 342,92 Z M318,94 C315.790861,94 314,92.209139 314,90 C314,87.790861 315.790861,86 318,86 C320.209139,86 322,87.790861 322,90 C322,92.209139 320.209139,94 318,94 Z M318,92 C319.104569,92 320,91.1045695 320,90 C320,88.8954305 319.104569,88 318,88 C316.895431,88 316,88.8954305 316,90 C316,91.1045695 316.895431,92 318,92 Z M360.585786,90 L348.292893,77.7071068 C347.902369,77.3165825 347.902369,76.6834175 348.292893,76.2928932 C348.683418,75.9023689 349.316582,75.9023689 349.707107,76.2928932 L362.707107,89.2928932 C363.097631,89.6834175 363.097631,90.3165825 362.707107,90.7071068 L349.707107,103.707107 C349.316582,104.097631 348.683418,104.097631 348.292893,103.707107 C347.902369,103.316582 347.902369,102.683418 348.292893,102.292893 L360.585786,90 Z"
                  transform="translate(-298 -76)"
                ></path>
              </g>
              <g
                id="SvgjsG1378"
                transform="matrix(3.9217056738827902,0,0,3.9217056738827902,116.07829432611722,-18.90261828129047)"
                fill="#000"
              >
                <path d="M12.7 16.46 l1.46 1.46 c-1.38 1.52 -3.36 2.28 -5.54 2.28 c-4.22 0 -7.62 -3.34 -7.62 -7.7 c0 -4.34 3.4 -7.68 7.62 -7.68 c2.18 0 4.16 0.76 5.56 2.3 l-1.46 1.46 c-0.88 -1.28 -2.48 -1.92 -4.1 -1.92 c-3.1 0 -5.4 2.76 -5.4 5.84 c0 2.82 2.08 5.86 5.4 5.86 c1.44 0 3.28 -0.56 4.08 -1.9 z M16.44 15.82 l0 -5.7 l2.06 0 l0 5.5 c0 2 0.62 2.88 2.32 2.88 c1.92 0 2.7 -1.34 2.7 -3.08 l0 -5.3 l2.06 0 l0 9.88 l-2.06 0 l0 -1.6 c-0.28 0.88 -1.52 1.68 -2.7 1.76 c-2.68 0.2 -4.38 -1.1 -4.38 -4.34 z M34.32 10.24 l-0.44 1.62 c-0.14 -0.08 -0.58 -0.22 -0.94 -0.22 c-1.7 0 -2.5 1.62 -2.5 3.62 l0 4.74 l-2.06 0 l0 -9.88 l2.06 0 l0 1.4 c0.24 -0.92 1.3 -1.58 2.48 -1.58 c0.54 0 1.12 0.14 1.4 0.3 z M42.42 17.42 l1.42 1.28 c-0.94 1.04 -2.28 1.5 -3.78 1.5 c-2.84 0 -5.14 -2.18 -5.14 -5.12 s2.3 -5.14 5.14 -5.14 c1.5 0 2.84 0.46 3.78 1.5 l-1.42 1.28 c-0.58 -0.78 -1.42 -1.08 -2.36 -1.08 c-1.7 0 -3.08 1.42 -3.08 3.44 c0 2 1.38 3.44 3.08 3.44 c0.94 0 1.78 -0.3 2.36 -1.1 z M45.7 15.82 l0 -5.7 l2.06 0 l0 5.5 c0 2 0.62 2.88 2.32 2.88 c1.92 0 2.7 -1.34 2.7 -3.08 l0 -5.3 l2.06 0 l0 9.88 l-2.06 0 l0 -1.6 c-0.28 0.88 -1.52 1.68 -2.7 1.76 c-2.68 0.2 -4.38 -1.1 -4.38 -4.34 z M64.58 16.16 c0.04 0.12 0.38 1.1 -0.04 2.1 c-0.52 1.18 -1.9 1.94 -3.62 1.94 l-0.02 0 c-1.38 0 -2.64 -0.58 -3.58 -1.5 l1.34 -1.34 c0.56 0.72 1.36 1.08 2.24 1.08 c0.98 0 1.8 -0.36 2.02 -0.88 c0.14 -0.36 0.02 -0.74 0.02 -0.78 c-0.24 -0.6 -1.12 -0.72 -2.12 -0.94 c-1.34 -0.3 -2.68 -0.64 -3.2 -2.04 c-0.26 -0.72 -0.18 -1.56 0.18 -2.26 c0.82 -1.54 2.86 -1.6 3.1 -1.6 c1.38 0 2.68 0.52 3.6 1.46 l-1.34 1.34 c-0.56 -0.72 -1.38 -1.04 -2.26 -1.04 c-0.02 0 -1.2 0.02 -1.54 0.68 c-0.12 0.2 -0.18 0.54 -0.08 0.82 c0.2 0.56 1.1 0.74 2.06 0.96 c1.3 0.3 2.72 0.6 3.24 2 z"></path>
              </g>
            </svg>