<?xml version="1.0" encoding="utf-8"?>
<svg viewBox="0 0 370 60.31583745315089" preserveAspectRatio="xMidYMid meet" classname="h-[1.2rem]" id="baechhaf" xmlns="http://www.w3.org/2000/svg">
  <g id="SvgjsG1377" transform="matrix(1.5384615384615385,0,0,1.5384615384615385,0,9)" fill="#000">
    <path xmlns="http://www.w3.org/2000/svg" fill="#000" d="M300.414214,90 L312.707107,102.292893 C313.097631,102.683418 313.097631,103.316582 312.707107,103.707107 C312.316582,104.097631 311.683418,104.097631 311.292893,103.707107 L298.292893,90.7071068 C297.902369,90.3165825 297.902369,89.6834175 298.292893,89.2928932 L311.292893,76.2928932 C311.683418,75.9023689 312.316582,75.9023689 312.707107,76.2928932 C313.097631,76.6834175 313.097631,77.3165825 312.707107,77.7071068 L300.414214,90 Z M330,94 C327.790861,94 326,92.209139 326,90 C326,87.790861 327.790861,86 330,86 C332.209139,86 334,87.790861 334,90 C334,92.209139 332.209139,94 330,94 Z M330,92 C331.104569,92 332,91.1045695 332,90 C332,88.8954305 331.104569,88 330,88 C328.895431,88 328,88.8954305 328,90 C328,91.1045695 328.895431,92 330,92 Z M342,94 C339.790861,94 338,92.209139 338,90 C338,87.790861 339.790861,86 342,86 C344.209139,86 346,87.790861 346,90 C346,92.209139 344.209139,94 342,94 Z M342,92 C343.104569,92 344,91.1045695 344,90 C344,88.8954305 343.104569,88 342,88 C340.895431,88 340,88.8954305 340,90 C340,91.1045695 340.895431,92 342,92 Z M318,94 C315.790861,94 314,92.209139 314,90 C314,87.790861 315.790861,86 318,86 C320.209139,86 322,87.790861 322,90 C322,92.209139 320.209139,94 318,94 Z M318,92 C319.104569,92 320,91.1045695 320,90 C320,88.8954305 319.104569,88 318,88 C316.895431,88 316,88.8954305 316,90 C316,91.1045695 316.895431,92 318,92 Z M360.585786,90 L348.292893,77.7071068 C347.902369,77.3165825 347.902369,76.6834175 348.292893,76.2928932 C348.683418,75.9023689 349.316582,75.9023689 349.707107,76.2928932 L362.707107,89.2928932 C363.097631,89.6834175 363.097631,90.3165825 362.707107,90.7071068 L349.707107,103.707107 C349.316582,104.097631 348.683418,104.097631 348.292893,103.707107 C347.902369,103.316582 347.902369,102.683418 348.292893,102.292893 L360.585786,90 Z" transform="translate(-298 -76)"/>
  </g>
  <g id="SvgjsG1378" transform="matrix(3.9217056738827902,0,0,3.9217056738827902,116.07829432611722,-18.90261828129047)" fill="#000">
    <path d="M 12.7 16.46 L 14.16 17.92 C 12.78 19.44 10.8 20.2 8.62 20.2 C 4.4 20.2 1 16.86 1 12.5 C 1 8.16 4.4 4.82 8.62 4.82 C 10.8 4.82 12.78 5.58 14.18 7.12 L 12.72 8.58 C 11.84 7.3 10.24 6.66 8.62 6.66 C 5.52 6.66 3.22 9.42 3.22 12.5 C 3.22 15.32 5.3 18.36 8.62 18.36 C 10.06 18.36 11.9 17.8 12.7 16.46 Z M 16.44 15.82 L 16.44 10.12 L 18.5 10.12 L 18.5 15.62 C 18.5 17.62 19.12 18.5 20.82 18.5 C 22.74 18.5 23.52 17.16 23.52 15.42 L 23.52 10.12 L 25.58 10.12 L 25.58 20 L 23.52 20 L 23.52 18.4 C 23.24 19.28 22 20.08 20.82 20.16 C 18.14 20.36 16.44 19.06 16.44 15.82 Z M 34.32 10.24 L 33.88 11.86 C 33.74 11.78 33.3 11.64 32.94 11.64 C 31.24 11.64 30.44 13.26 30.44 15.26 L 30.44 20 L 28.38 20 L 28.38 10.12 L 30.44 10.12 L 30.44 11.52 C 30.68 10.6 31.74 9.94 32.92 9.94 C 33.46 9.94 34.04 10.08 34.32 10.24 Z M 45.7 15.82 L 45.7 10.12 L 47.76 10.12 L 47.76 15.62 C 47.76 17.62 48.38 18.5 50.08 18.5 C 52 18.5 52.78 17.16 52.78 15.42 L 52.78 10.12 L 54.84 10.12 L 54.84 20 L 52.78 20 L 52.78 18.4 C 52.5 19.28 51.26 20.08 50.08 20.16 C 47.4 20.36 45.7 19.06 45.7 15.82 Z M 64.58 16.16 C 64.62 16.28 64.96 17.26 64.54 18.26 C 64.02 19.44 62.64 20.2 60.92 20.2 L 60.9 20.2 C 59.52 20.2 58.26 19.62 57.32 18.7 L 58.66 17.36 C 59.22 18.08 60.02 18.44 60.9 18.44 C 61.88 18.44 62.7 18.08 62.92 17.56 C 63.06 17.2 62.94 16.82 62.94 16.78 C 62.7 16.18 61.82 16.06 60.82 15.84 C 59.48 15.54 58.14 15.2 57.62 13.8 C 57.36 13.08 57.44 12.24 57.8 11.54 C 58.62 10 60.66 9.94 60.9 9.94 C 62.28 9.94 63.58 10.46 64.5 11.4 L 63.16 12.74 C 62.6 12.02 61.78 11.7 60.9 11.7 C 60.88 11.7 59.7 11.72 59.36 12.38 C 59.24 12.58 59.18 12.92 59.28 13.2 C 59.48 13.76 60.38 13.94 61.34 14.16 C 62.64 14.46 64.06 14.76 64.58 16.16 ZM 43.464 16.122 C 43.504 16.242 43.844 17.222 43.424 18.222 C 42.904 19.402 41.524 20.162 39.804 20.162 L 39.784 20.162 C 38.404 20.162 37.144 19.582 36.204 18.662 L 37.544 17.322 C 38.104 18.042 38.904 18.402 39.784 18.402 C 40.764 18.402 41.584 18.042 41.804 17.522 C 41.944 17.162 41.824 16.782 41.824 16.742 C 41.584 16.142 40.704 16.022 39.704 15.802 C 38.364 15.502 37.024 15.162 36.504 13.762 C 36.244 13.042 36.324 12.202 36.684 11.502 C 37.504 9.962 39.544 9.902 39.784 9.902 C 41.164 9.902 42.464 10.422 43.384 11.362 L 42.044 12.702 C 41.484 11.982 40.664 11.662 39.784 11.662 C 39.764 11.662 38.584 11.682 38.244 12.342 C 38.124 12.542 38.064 12.882 38.164 13.162 C 38.364 13.722 39.264 13.902 40.224 14.122 C 41.524 14.422 42.944 14.722 43.464 16.122 Z"/>
  </g>
</svg>